<svg id="Frame_1" data-name="Frame 1" xmlns="http://www.w3.org/2000/svg" width="728" height="90" viewBox="0 0 728 90">
  <defs>
    <style>
      .cls-1 {
        fill: #1f513f;
        fill-rule: evenodd;
      }
    </style>
  </defs>
  <path id="Outside_You_goes_with_the_flow" data-name="Outside You goes with the flow" class="cls-1" d="M147.024,57.851c6.748,0,12.222-4.679,12.222-11.745,0-7.1-5.474-11.777-12.222-11.777-6.716,0-12.191,4.679-12.191,11.777C134.833,53.172,140.308,57.851,147.024,57.851Zm0.318-2.769c-4.265,0-6.4-4.106-6.4-9.612,0-5.729,2.26-8.371,5.762-8.371,4.265,0,6.461,4.074,6.461,9.644C153.167,52.472,150.843,55.082,147.342,55.082Zm20.143,2.61c2.451,0,4.138-1.464,5.571-3.056v1.782a1.108,1.108,0,0,0,1.3,1.21,3.951,3.951,0,0,0,1.209-.159l3.565-.923a0.923,0.923,0,0,0,.828-1.019,1.1,1.1,0,0,0-.51-0.955l-1.591-1.241V41.841a1.07,1.07,0,0,0-1.241-1.146,2.456,2.456,0,0,0-1.242.286l-3.6,1.814a1.205,1.205,0,0,0-.827,1.209,1.274,1.274,0,0,0,.509,1.019l1.592,1.464v6.048a4.554,4.554,0,0,1-3.215,1.623c-1.655,0-2.165-1.5-2.165-2.737V41.841A1.081,1.081,0,0,0,166.4,40.7a2.339,2.339,0,0,0-1.209.286L161.6,42.8a1.2,1.2,0,0,0-.828,1.209,1.272,1.272,0,0,0,.51,1.019l1.591,1.464v5.761C162.87,55.528,164.875,57.692,167.485,57.692Zm14.1-14.2h1.337v9.549c0,3.151,1.5,4.711,4.456,4.711a6.293,6.293,0,0,0,3.788-1.146,1.529,1.529,0,0,0,.668-1.3,0.766,0.766,0,0,0-.795-0.891,12.713,12.713,0,0,1-1.369.191,1.816,1.816,0,0,1-1.91-2.1V43.5h2.706c0.8,0,1.018-.382,1.018-1.4,0-.923-0.222-1.273-1.018-1.273h-2.706V38.117a0.958,0.958,0,0,0-1.114-1.082,1.527,1.527,0,0,0-1.432.859,6.1,6.1,0,0,1-3.629,3.215,1.289,1.289,0,0,0-.923,1.337A0.924,0.924,0,0,0,181.582,43.5ZM193.707,45.5c0,2.578,1.56,4.138,4.934,5.634,2.1,1.05,2.96,1.591,2.96,2.706,0,1.05-.6,1.655-1.91,1.655a3.775,3.775,0,0,1-3.469-2.674,1.476,1.476,0,0,0-1.56-1.05,0.955,0.955,0,0,0-1.114,1.146l0.159,2.292a1.547,1.547,0,0,0,.955,1.623,10.619,10.619,0,0,0,5,.987c4.265,0,6.366-2.355,6.366-5.315,0-2.483-1.368-4.138-4.9-5.729-2.291-1.146-3.087-1.592-3.087-2.578a1.349,1.349,0,0,1,1.623-1.4,2.939,2.939,0,0,1,2.769,2.133,1.311,1.311,0,0,0,1.4.955,0.933,0.933,0,0,0,1.114-1.146l-0.1-2.2a1.29,1.29,0,0,0-.954-1.3,10.309,10.309,0,0,0-4.17-.732C195.84,40.5,193.707,42.764,193.707,45.5Zm18.458-6.875a2.758,2.758,0,1,0,0-5.506A2.758,2.758,0,1,0,212.165,38.626Zm1.528,2.069a2.529,2.529,0,0,0-1.241.286L208.76,42.8a1.256,1.256,0,0,0-.8,1.241,1.325,1.325,0,0,0,.509,1.019l1.655,1.5v8.085l-1.241.382a1.135,1.135,0,0,0-1.082,1.241,0.971,0.971,0,0,0,1.05,1.21h7.289a0.991,0.991,0,0,0,1.082-1.21,1.15,1.15,0,0,0-1.018-1.241l-1.242-.382v-12.8A1.094,1.094,0,0,0,213.693,40.7Zm18.045,16.933a5.266,5.266,0,0,0,1.21-.159l3.692-.923a0.923,0.923,0,0,0,.828-1.019,1.06,1.06,0,0,0-.51-0.955l-1.719-1.209v-19.1a1.108,1.108,0,0,0-1.305-1.21,5.265,5.265,0,0,0-1.209.159l-3.692.923a0.961,0.961,0,0,0-.828,1.114,1.105,1.105,0,0,0,.8,1.082l1.432,0.637v4.583a7.64,7.64,0,0,0-4.3-1.05c-4.265,0-7.575,3.406-7.575,8.658,0,5.316,3.055,8.594,6.429,8.594a7.1,7.1,0,0,0,5.443-2.706v1.369A1.109,1.109,0,0,0,231.738,57.629Zm-7.893-9.644c0-3.119,1.082-5.125,3.278-5.125,1.814,0,3.31,1.05,3.31,3.947v6.175a3.781,3.781,0,0,1-2.96,1.4C225.277,54.382,223.845,51.995,223.845,47.984Zm29.948-.414a6.648,6.648,0,0,0-7.034-7.034c-4.584,0-8.149,3.406-8.149,8.53,0,5.475,3.183,8.689,8.212,8.689,3.5,0,6.08-1.591,7.034-3.915a1.307,1.307,0,0,0,.128-0.541A0.877,0.877,0,0,0,253,52.409a1.1,1.1,0,0,0-.637.223,6.034,6.034,0,0,1-4.01,1.464c-2.928,0-4.424-1.814-4.647-5.475h8.976A0.926,0.926,0,0,0,253.793,47.57Zm-7.321-4.615c1.464,0,2.387,1.178,2.515,3.469h-5.252C243.958,44.069,244.944,42.955,246.472,42.955Zm22.6,14.514h9.262c0.764,0,1.018-.477,1.018-1.3a1.1,1.1,0,0,0-1.018-1.21l-1.878-.414V47.889l6.334-10.408,1.178-.255a1.108,1.108,0,0,0,1.018-1.21c0-.828-0.254-1.3-1.018-1.3h-6.016c-0.764,0-1.019.477-1.019,1.3a1.088,1.088,0,0,0,1.019,1.21l1.5,0.318-4.424,7.671-4.679-7.639,1.591-.35a1.084,1.084,0,0,0,.987-1.21c0-.828-0.255-1.3-0.987-1.3h-8.753c-0.764,0-.987.477-0.987,1.3a1.1,1.1,0,0,0,.987,1.21l1.051,0.286,6.716,10.981v6.048l-1.878.414a1.08,1.08,0,0,0-.987,1.21C268.08,56.992,268.3,57.469,269.067,57.469Zm23.741,0.286a8.368,8.368,0,0,0,8.689-8.594c0-5.22-3.533-8.626-8.689-8.626a8.4,8.4,0,0,0-8.721,8.626C284.087,54.35,287.652,57.756,292.808,57.756Zm3.406-7.512c0,3.183-1.114,4.87-3.056,4.87-2.833,0-3.788-3.438-3.788-6.843,0-3.374,1.083-5.093,3.024-5.093C295.227,43.178,296.214,46.647,296.214,50.244Zm13.238,7.448c2.45,0,4.137-1.464,5.57-3.056v1.782a1.108,1.108,0,0,0,1.305,1.21,3.951,3.951,0,0,0,1.209-.159l3.565-.923a0.923,0.923,0,0,0,.828-1.019,1.1,1.1,0,0,0-.51-0.955l-1.591-1.241V41.841a1.07,1.07,0,0,0-1.241-1.146,2.456,2.456,0,0,0-1.242.286l-3.6,1.814a1.205,1.205,0,0,0-.827,1.209,1.274,1.274,0,0,0,.509,1.019l1.592,1.464v6.048a4.554,4.554,0,0,1-3.215,1.623c-1.655,0-2.165-1.5-2.165-2.737V41.841a1.081,1.081,0,0,0-1.273-1.146,2.339,2.339,0,0,0-1.209.286l-3.6,1.814a1.2,1.2,0,0,0-.828,1.209,1.272,1.272,0,0,0,.51,1.019l1.591,1.464v5.761C304.836,55.528,306.841,57.692,309.452,57.692Zm27.973-6.016c3.6,0,6.557-2.355,6.557-5.507a5.034,5.034,0,0,0-1.751-3.819,9.472,9.472,0,0,0,3.087.668,0.739,0.739,0,0,0,.924-0.828V41.65c0-.637-0.16-0.828-0.924-0.828h-5.665a7.252,7.252,0,0,0-2.228-.318c-3.629,0-6.589,2.451-6.589,5.634a5.339,5.339,0,0,0,2.992,4.679C331.505,51.995,331,52.981,331,54.159c0,1.082.987,2.292,2.706,2.737-1.974.8-3.438,1.974-3.438,3.5,0,2.133,1.91,3.756,7.162,3.756,5.029,0,8.689-2.578,8.689-6.238,0-2.005-1.432-3.565-4.933-3.565h-5.634c-1.337,0-1.91-.541-1.91-1.241,0-.637.859-1.178,2-1.623A8.27,8.27,0,0,0,337.425,51.676Zm0.095-1.719c-2.26,0-3.5-1.687-3.5-4.106,0-2.514,1.305-3.66,3.278-3.66,2.26,0,3.5,1.814,3.5,4.2C340.8,48.939,339.494,49.958,337.52,49.958Zm-4.233,9.867c0-1.114.859-1.973,2.483-2.769h4.774c2.164,0,2.706.573,2.706,1.878,0,1.751-2.006,3.342-5.634,3.342C334.21,62.276,333.287,61.162,333.287,59.825Zm22.5-2.069c4.393,0,7.958-3.406,7.958-8.594,0-5.22-3.215-8.626-7.958-8.626-4.392,0-7.957,3.406-7.957,8.626C347.83,54.35,351.077,57.756,355.787,57.756Zm4.743-7.416c0,3.438-1.655,5.379-4.329,5.379-3.851,0-5.124-3.819-5.124-7.544,0-3.66,1.527-5.6,4.265-5.6C359.129,42.573,360.53,46.425,360.53,50.34Zm19.094-3.119c0-4.011-2.419-6.684-6.27-6.684-4.106,0-7.321,3.406-7.321,8.53,0,5.475,2.928,8.689,7.639,8.689a6.7,6.7,0,0,0,6.175-3.6,0.951,0.951,0,0,0,.1-0.382,0.773,0.773,0,0,0-.859-0.732,0.632,0.632,0,0,0-.509.223,5.389,5.389,0,0,1-4.2,1.942c-3.533,0-5.156-2.61-5.156-6.971v-0.35h9.708A0.569,0.569,0,0,0,379.624,47.22ZM373.1,42.446c1.846,0,3.056,1.273,3.215,3.6h-6.907C369.853,43.464,371.221,42.446,373.1,42.446Zm9.387,2.419c0,2.514,1.655,3.788,4.616,5.443,2.387,1.369,3.246,2.228,3.246,3.469a2.065,2.065,0,0,1-2.355,2.164,4.084,4.084,0,0,1-3.756-3.056,1,1,0,0,0-1.082-.891,0.707,0.707,0,0,0-.8.891l0.127,2.419a1.4,1.4,0,0,0,.764,1.432,8.833,8.833,0,0,0,4.425,1.05c3.724,0,5.506-2.2,5.506-4.711,0-2.355-1.464-3.851-4.488-5.6-2.642-1.56-3.438-2.1-3.438-3.374a1.654,1.654,0,0,1,1.878-1.782,3.149,3.149,0,0,1,3.12,2.514,0.858,0.858,0,0,0,.986.8,0.712,0.712,0,0,0,.828-0.859L392,42.446a1.108,1.108,0,0,0-.764-1.146,8.348,8.348,0,0,0-3.724-.828C384.269,40.473,382.486,42.573,382.486,44.865Zm28.77,12.6a0.857,0.857,0,0,0,.955-0.7l3.183-8.944,3.31,8.944a0.888,0.888,0,0,0,.987.7h0.7a0.888,0.888,0,0,0,.987-0.7l4.711-13.782,0.827-.318c0.637-.255.86-0.414,0.86-0.923a0.779,0.779,0,0,0-.86-0.923h-4.551a0.779,0.779,0,0,0-.86.923,0.879,0.879,0,0,0,.86.923l1.5,0.382-3.469,11.2-3.724-11.236,1.273-.35a0.9,0.9,0,0,0,.86-0.923,0.767,0.767,0,0,0-.86-0.923h-5.347a0.767,0.767,0,0,0-.86.923c0,0.509.191,0.7,0.86,0.923l1.05,0.382,0.86,2.292-3.151,8.88-3.884-11.172,1.337-.382a0.9,0.9,0,0,0,.86-0.923,0.767,0.767,0,0,0-.86-0.923h-5.347a0.767,0.767,0,0,0-.86.923c0,0.509.191,0.7,0.86,0.923l0.891,0.35,5.188,13.75a0.857,0.857,0,0,0,.955.7h0.764ZM432.609,37.1a2.059,2.059,0,0,0,2.1-2.1A2.1,2.1,0,1,0,432.609,37.1Zm1.018,3.6a1.848,1.848,0,0,0-.891.223l-2.865,1.591a0.877,0.877,0,0,0-.573.891,0.968,0.968,0,0,0,.542.828l1.814,1.3v9.613l-1.783.509a0.882,0.882,0,0,0-.891.891,0.768,0.768,0,0,0,.86.923h6.3A0.756,0.756,0,0,0,437,56.546a0.865,0.865,0,0,0-.827-0.891l-1.656-.509V41.714A0.875,0.875,0,0,0,433.627,40.7Zm5.314,2.228h1.528V53.745c0,2.61,1.177,3.979,3.437,3.979a5.137,5.137,0,0,0,3.056-.923,1.089,1.089,0,0,0,.477-0.955,0.541,0.541,0,0,0-.573-0.637,10.609,10.609,0,0,1-1.591.286,1.815,1.815,0,0,1-1.91-2.1V42.923h2.9c0.636,0,.732-0.318.732-1.114,0-.732-0.1-0.987-0.732-0.987h-2.9V37.894a0.589,0.589,0,0,0-.668-0.7,0.889,0.889,0,0,0-.86.6,5.369,5.369,0,0,1-2.96,3.342,0.967,0.967,0,0,0-.668.987A0.7,0.7,0,0,0,438.941,42.923ZM460.424,40.6a8.038,8.038,0,0,0-5.793,2.8V34.17a0.933,0.933,0,0,0-.987-1.114,2.959,2.959,0,0,0-.923.159l-2.706.859a0.727,0.727,0,0,0-.6.828,0.82,0.82,0,0,0,.573.7l1.814,0.668V55.146l-1.814.509a0.854,0.854,0,0,0-.86.891,0.768,0.768,0,0,0,.86.923h6.3a0.767,0.767,0,0,0,.859-0.923c0-.509-0.191-0.7-0.859-0.891l-1.655-.509V45.151a6.423,6.423,0,0,1,4.488-2.164c2.419,0,2.992,2.164,2.992,3.724v8.435l-1.624.509a0.871,0.871,0,0,0-.859.891,0.767,0.767,0,0,0,.859.923h6.3a0.768,0.768,0,0,0,.86-0.923,0.861,0.861,0,0,0-.891-0.891l-1.783-.509V45.724C464.975,42.669,463.034,40.6,460.424,40.6Zm16.355,2.323h1.528V53.745c0,2.61,1.177,3.979,3.437,3.979A5.137,5.137,0,0,0,484.8,56.8a1.089,1.089,0,0,0,.477-0.955,0.54,0.54,0,0,0-.573-0.637,10.583,10.583,0,0,1-1.591.286,1.816,1.816,0,0,1-1.91-2.1V42.923h2.9c0.636,0,.732-0.318.732-1.114,0-.732-0.1-0.987-0.732-0.987h-2.9V37.894a0.589,0.589,0,0,0-.668-0.7,0.889,0.889,0,0,0-.86.6,5.364,5.364,0,0,1-2.96,3.342,0.968,0.968,0,0,0-.668.987A0.7,0.7,0,0,0,476.779,42.923ZM498.262,40.6a8.038,8.038,0,0,0-5.793,2.8V34.17a0.933,0.933,0,0,0-.987-1.114,2.959,2.959,0,0,0-.923.159l-2.706.859a0.727,0.727,0,0,0-.6.828,0.82,0.82,0,0,0,.573.7l1.814,0.668V55.146l-1.814.509a0.854,0.854,0,0,0-.86.891,0.768,0.768,0,0,0,.86.923h6.3a0.767,0.767,0,0,0,.859-0.923c0-.509-0.191-0.7-0.859-0.891l-1.655-.509V45.151a6.423,6.423,0,0,1,4.488-2.164c2.419,0,2.992,2.164,2.992,3.724v8.435l-1.624.509a0.871,0.871,0,0,0-.859.891,0.767,0.767,0,0,0,.859.923h6.3a0.767,0.767,0,0,0,.859-0.923,0.861,0.861,0,0,0-.891-0.891l-1.783-.509V45.724C502.813,42.669,500.872,40.6,498.262,40.6Zm22.4,6.621c0-4.011-2.419-6.684-6.27-6.684-4.106,0-7.321,3.406-7.321,8.53,0,5.475,2.928,8.689,7.639,8.689a6.7,6.7,0,0,0,6.175-3.6,0.951,0.951,0,0,0,.1-0.382,0.773,0.773,0,0,0-.859-0.732,0.632,0.632,0,0,0-.509.223,5.389,5.389,0,0,1-4.2,1.942c-3.533,0-5.156-2.61-5.156-6.971v-0.35h9.708A0.569,0.569,0,0,0,520.666,47.22Zm-6.525-4.774c1.846,0,3.056,1.273,3.215,3.6h-6.907C510.894,43.464,512.263,42.446,514.141,42.446Zm16.674,0.477h2.2V55.146l-1.815.509a0.853,0.853,0,0,0-.859.891,0.767,0.767,0,0,0,.859.923h6.78a0.767,0.767,0,0,0,.859-0.923,0.856,0.856,0,0,0-.859-0.891l-2.133-.509V42.923h7.162V55.146l-1.814.509a0.875,0.875,0,0,0-.86.891,0.768,0.768,0,0,0,.86.923h6.3a0.756,0.756,0,0,0,.859-0.923,0.864,0.864,0,0,0-.827-0.891l-1.687-.509V34.17a0.932,0.932,0,0,0-.987-1.114,1.958,1.958,0,0,0-.827.191l-1.369.637a8.211,8.211,0,0,0-3.5-.8c-3.693,0-6.271,2.578-6.271,6.493v1.209l-2.132.382a0.825,0.825,0,0,0-.669.955A0.677,0.677,0,0,0,530.815,42.923Zm5.029-2.1V38.881c0-2.546,1.114-3.947,3.151-3.947A4.866,4.866,0,0,1,543.006,37v3.82h-7.162Zm22.087,16.933c4.392,0,7.957-3.406,7.957-8.594,0-5.22-3.215-8.626-7.957-8.626-4.393,0-7.957,3.406-7.957,8.626C549.974,54.35,553.22,57.756,557.931,57.756Zm4.742-7.416c0,3.438-1.655,5.379-4.328,5.379-3.852,0-5.125-3.819-5.125-7.544,0-3.66,1.528-5.6,4.265-5.6C561.273,42.573,562.673,46.425,562.673,50.34Zm12.825,7.13a0.857,0.857,0,0,0,.955-0.7l3.183-8.944,3.31,8.944a0.888,0.888,0,0,0,.987.7h0.7a0.888,0.888,0,0,0,.987-0.7l4.71-13.782,0.828-.318c0.636-.255.859-0.414,0.859-0.923a0.778,0.778,0,0,0-.859-0.923h-4.552a0.778,0.778,0,0,0-.859.923,0.879,0.879,0,0,0,.859.923l1.5,0.382-3.469,11.2-3.724-11.236,1.273-.35a0.9,0.9,0,0,0,.859-0.923,0.766,0.766,0,0,0-.859-0.923h-5.347a0.766,0.766,0,0,0-.86.923c0,0.509.191,0.7,0.86,0.923l1.05,0.382,0.859,2.292-3.151,8.88L571.71,43.051l1.337-.382a0.9,0.9,0,0,0,.859-0.923,0.766,0.766,0,0,0-.859-0.923H567.7a0.766,0.766,0,0,0-.86.923c0,0.509.191,0.7,0.86,0.923l0.891,0.35,5.188,13.75a0.857,0.857,0,0,0,.955.7H575.5Z"/>
</svg>
